<?xml version="1.0" encoding="utf-8"?>
<!-- Generator: Adobe Illustrator 21.1.0, SVG Export Plug-In . SVG Version: 6.00 Build 0)  -->
<svg version="1.1" id="Слой_1" xmlns="http://www.w3.org/2000/svg" xmlns:xlink="http://www.w3.org/1999/xlink" x="0px" y="0px"
	 viewBox="0 0 100.148 59.843" style="enable-background:new 0 0 100.148 59.843;" xml:space="preserve">
<style type="text/css">
	.st0{fill:#4B7B8A;}
</style>
<path class="st0" d="M86.717,2.843c-1.461-0.207-3.344-0.417-5.516-0.624c-4.342-0.416-9.837-0.822-15.415-1.171
	C54.63,0.349,43.141-0.119,39.872,0.027c-5.212,0.194-9.965,1.45-15.765,1.596c-1.938,0.049-3.574-0.29-5.06,0
	c-0.147,0.192-0.89,0.338-1.636,0.484c-0.965,0.024-1.931-0.002-2.883-0.048c-0.979-0.045-1.743-0.108-3.2-0.157
	C8.752,1.806,6.207,1.77,4.365,2.06c-0.483,0.043-1.209-0.021-2.13-0.153C1.931,3.385,1.271,5.318,0.747,7.325
	c-0.525,1.973-0.914,3.885-0.675,4.203c0.264,0.349,0.47,0.623,0.635,0.841c0.161,0.133,0.274,0.239,0.349,0.337
	c0.151,0.195,0.151,0.353,0.078,0.613c-0.145,0.521-0.58,1.453-0.677,3.908c-0.046,0.594,0.822,2.526,0.728,3.717
	c-0.532,4.015,0.192,5.205,0.435,9.813c0.678,6.841-0.674,8.336,0.678,14.43c0.032,0.162,0.099,0.748,0.184,1.551
	c0.082,1.064,0.187,2.415,0.292,3.781c0.208,2.698,0.421,5.204,0.503,5.753c1.348-0.031,1.531-0.036,1.531-0.036
	c2.318,0.048,4.494,0.018,6.478-0.032c1.672-0.052,3.223-0.1,4.719-0.146c2.807-0.055,5.411,0.053,8.313,0.8
	c6.691-1.305,15.618,0.24,22.754-0.004c7.14-0.243,10.119,0.821,16.367,1.737c1.785,0.145,3.123,0.046,4.163,0.336
	c1.043,0.29,3.569-0.532,5.353-0.388l-0.444,0.58c0.598,0.048,1.785,0.143,2.381,0.191c0.596,0.05,0.446,0.243,0.298,0.436
	l15.36,0.094c0.745-0.145,1.489-0.29,2.23-0.434c0.446-0.579,0.295-1.208,0.595-1.596c-0.003-1.64,3.752-3.166,3.005-4.663
	l0.944-3.734c0.906-3.992,1.417-12.77,1.799-22.025c0.172-4.629,0.348-9.375,0.509-13.704c0.087-2.164,0.169-4.224,0.245-6.111
	c0.085-1.488,0.174-2.858,0.271-4.126L86.717,2.843z"/>
</svg>
