<?xml version="1.0" encoding="utf-8"?>
<!-- Generator: Adobe Illustrator 21.1.0, SVG Export Plug-In . SVG Version: 6.00 Build 0)  -->
<svg version="1.1" id="Слой_1" xmlns="http://www.w3.org/2000/svg" xmlns:xlink="http://www.w3.org/1999/xlink" x="0px" y="0px"
	 viewBox="0 0 99.749 58.873" style="enable-background:new 0 0 99.749 58.873;" xml:space="preserve">
<style type="text/css">
	.st0{fill:#4B7B8A;}
</style>
<path class="st0" d="M99.01,13.482c0.17-0.213,0.384-0.481,0.657-0.823c0.247-0.312-0.092-2.233-0.564-4.219
	c-0.471-2.02-1.08-3.97-1.344-5.456c-0.924,0.107-1.652,0.153-2.133,0.097c-1.834-0.339-4.379-0.371-6.956-0.342
	c-1.458,0.01-2.223,0.053-3.203,0.072c-0.953,0.02-1.919,0.021-2.884-0.029c-0.743-0.166-1.481-0.331-1.623-0.528
	c-1.478-0.329-3.122-0.034-5.059-0.134c-5.794-0.3-10.512-1.681-15.717-2.013C56.92-0.126,45.423,0.038,34.252,0.441
	c-5.585,0.201-11.089,0.462-15.441,0.762c-2.176,0.15-4.064,0.31-5.53,0.478L2.839,2.932c0.064,1.271-2.883,1.643-2.838,3.132
	c0.026,1.889,0.053,3.95,0.083,6.115C0.129,16.511,0.18,21.26,0.23,25.892c0.136,9.262,0.415,18.051,1.215,22.065l0.511,2.274v5.721
	h3.112c0.065,0.167,0.108,0.335,0.103,0.503c0.289,0.395,0.122,1.02,0.552,1.611C6.46,58.23,7.2,58.395,7.941,58.559l15.357,0.313
	c-0.143-0.197-0.288-0.394,0.309-0.428c0.597-0.032,1.786-0.096,2.385-0.128l-0.428-0.592c1.787-0.097,4.29,0.792,5.341,0.529
	c1.047-0.262,2.382-0.128,4.17-0.226c6.27-0.75,9.276-1.734,16.407-1.303c7.128,0.433,16.092-0.875,22.746,0.607
	c2.921-0.67,5.526-0.709,8.331-0.579c1.494,0.085,3.043,0.174,4.713,0.27c1.982,0.102,4.156,0.19,6.474,0.203
	c0,0,0.183,0.009,1.53,0.076c0.097-0.547,0.376-3.047,0.656-5.738c0.142-1.363,0.282-2.71,0.392-3.772
	c0.106-0.8,0.189-1.384,0.225-1.545c1.512-6.056,0.201-7.586,1.06-14.407c0.365-4.601,1.12-5.771,0.695-9.798
	c-0.063-1.193,0.856-3.101,0.826-3.697c-0.032-2.457-0.442-3.4-0.573-3.925c-0.066-0.262-0.061-0.42,0.094-0.611
	C98.729,13.714,98.845,13.611,99.01,13.482z"/>
</svg>
