<?xml version="1.0" encoding="utf-8"?>
<!-- Generator: Adobe Illustrator 21.1.0, SVG Export Plug-In . SVG Version: 6.00 Build 0)  -->
<svg version="1.1" id="Слой_1" xmlns="http://www.w3.org/2000/svg" xmlns:xlink="http://www.w3.org/1999/xlink" x="0px" y="0px"
	 viewBox="0 0 149.003 55.393" style="enable-background:new 0 0 149.003 55.393;" xml:space="preserve">
<style type="text/css">
	.st0{fill:#377D90;}
</style>
<path class="st0" d="M148.79,44.606c-0.132-4.106-0.276-8.608-0.417-12.998c-0.338-8.781-0.88-17.114-2.133-20.93l1.175-9.828
	c1.152-1.388-5.055,0.753-5.009-0.8c-0.437-0.379-2.048,1.552-2.699,0.986c-1.103-0.166-2.21-0.333-3.318-0.5l-22.931-0.519
	c0.216,0.189,0.436,0.378-0.455,0.401c-0.891,0.022-2.666,0.065-3.56,0.087l0.648,0.567c-2.667,0.066-6.417-0.812-7.981-0.579
	c-1.56,0.233-3.555,0.087-6.223,0.154c-9.349,0.62-13.823,1.51-24.475,0.998C60.766,1.131,47.402,2.241,37.447,0.741
	c-4.351,0.593-8.239,0.592-12.429,0.429c-2.231-0.103-4.546-0.209-7.04-0.324c-2.96-0.125-6.206-0.24-9.668-0.286
	c0,0-0.273-0.011-2.284-0.094C5.888,0.982,5.508,3.347,5.13,5.894C4.938,7.183,4.748,8.458,4.599,9.463
	c-0.147,0.757-0.262,1.309-0.314,1.461c-2.17,5.717-0.19,7.187-1.374,13.639c-0.478,4.355-1.589,5.453-0.896,9.277
	c0.112,1.131-1.234,2.927-1.179,3.491c0.083,2.329,0.709,3.229,0.912,3.728c0.102,0.25,0.098,0.399-0.133,0.578
	c-0.115,0.089-0.287,0.186-0.53,0.305c-0.251,0.2-0.566,0.451-0.968,0.771c-0.364,0.292,0.169,2.118,0.902,4.007
	c0.733,1.922,1.669,3.778,2.085,5.19c1.377-0.088,2.902,2.666,3.621,2.726c2.743,0.348,5.154-0.01,9,0
	c2.176,0.012,5.4-0.181,6.863-0.185c1.423-0.005,1.822-1.126,3.262-1.065c1.111,0.168,3.286,0.187,3.5,0.375
	c2.212,0.333,4.358,0.002,7.25,0.125c8.655,0.368,14.863,0.904,22.639,1.294c4.877,0.267,22.039,0.278,38.709,0.058
	c8.335-0.11,16.548-0.277,23.04-0.499c3.246-0.111,6.063-0.235,8.249-0.373l16.587-0.053c-0.114-1.205,3.266-2.497,3.177-3.91
	C148.936,48.613,148.865,46.659,148.79,44.606z"/>
</svg>
