<?xml version="1.0" encoding="utf-8"?>
<!-- Generator: Adobe Illustrator 21.1.0, SVG Export Plug-In . SVG Version: 6.00 Build 0)  -->
<svg version="1.1" id="Слой_1" xmlns="http://www.w3.org/2000/svg" xmlns:xlink="http://www.w3.org/1999/xlink" x="0px" y="0px"
	 viewBox="0 0 230.257 56.316" style="enable-background:new 0 0 230.257 56.316;" xml:space="preserve">
<style type="text/css">
	.st0{fill:#4B7B8A;}
</style>
<path class="st0" d="M227.783,15.161c0.177-0.087,0.44-0.181,0.814-0.298c0.385-0.196,0.868-0.443,1.485-0.757
	c0.558-0.287-0.291-2.121-1.451-4.022c-1.159-1.933-2.633-3.804-3.296-5.222c-2.126,0.069-5.02-4.628-6.131-4.698
	c-4.242-0.388-9.392,0.043-15.333-0.023c-3.361-0.043-6.408,1.916-8.667,1.899c-1.305-0.009-1.995,0.753-2.805,1.36h-8.204
	c-2.788-0.116-5.834-0.016-9.295-0.143c-13.373-0.493-24.303-1.973-36.319-2.475c-7.536-0.338-34.045-0.596-59.791-0.616
	c-12.873-0.01-25.555,0.039-35.58,0.167c-5.012,0.064-9.361,0.148-12.736,0.254L4.855,0.4c0.193,1.207-5.009,2.451-4.851,3.865
	c0.127,1.792,0.266,3.748,0.411,5.802c0.262,4.109,0.55,8.615,0.831,13.009c0.53,7.19,1.269,14.079,2.609,18.449v8.311l-1,5.869
	c-1.76,1.372,8.063-0.973,8.015,0.58c0.681,0.385,3.189-3.075,4.202-2.5c1.707,0.182,3.418,0.365,5.132,0.548l35.427,0.85
	c-0.337-0.192-0.679-0.384,0.697-0.395c1.376-0.009,4.116-0.026,5.497-0.035l-1.009-0.576c4.118-0.028,9.923,0.905,12.336,0.694
	c2.406-0.211,5.49-0.036,9.609-0.064c14.432-0.486,21.329-1.311,37.79-0.645c16.453,0.667,37.079-0.25,52.478,1.394
	c6.711-0.531,12.718-0.473,19.191-0.25c3.448,0.135,7.024,0.275,10.879,0.426c4.574,0.168,9.59,0.33,14.938,0.426
	c0,0,0.422,0.015,3.53,0.127c0.153-0.387,0.504-1.815,0.901-3.58h0.236V51.64c0.056-0.255,0.112-0.512,0.168-0.772
	c0.278-1.287,0.552-2.56,0.768-3.563c0.216-0.755,0.385-1.306,0.463-1.458c3.27-5.688,0.19-7.187,1.925-13.625
	c0.676-4.35,2.375-5.433,1.25-9.267c-0.188-1.133,1.863-2.91,1.771-3.476c-0.162-2.331-1.141-3.24-1.462-3.743
	C227.426,15.486,227.43,15.336,227.783,15.161z"/>
</svg>
